<?xml version="1.0" standalone="no"?>
<!DOCTYPE svg PUBLIC "-//W3C//DTD SVG 20010904//EN"
 "http://www.w3.org/TR/2001/REC-SVG-20010904/DTD/svg10.dtd">
<svg version="1.0" xmlns="http://www.w3.org/2000/svg"
 width="60px" height="60px" viewBox="0 0 500.000000 500.000000"
 preserveAspectRatio="xMidYMid meet">
<metadata>
Created by potrace 1.16, written by Peter Selinger 2001-2019
</metadata>
<g transform="translate(0.000000,500.000000) scale(0.160256,-0.151515)"
fill="#000000" stroke="none">
<path d="M1472 3129 c-77 -12 -202 -56 -262 -94 -67 -42 -164 -139 -210 -211
-51 -77 -89 -183 -97 -269 -3 -36 -10 -65 -15 -65 -19 0 -68 -65 -68 -91 0
-35 -7 -39 -38 -23 -36 18 -48 18 -97 -6 -53 -26 -65 -53 -65 -146 l0 -76 -33
8 c-50 13 -86 9 -115 -13 -53 -39 -52 -32 -50 -553 3 -484 3 -485 27 -545 28
-72 28 -75 2 -149 -11 -32 -24 -94 -27 -137 l-7 -78 -31 -3 c-29 -3 -31 -5
-29 -43 3 -46 12 -312 12 -367 l1 -37 70 0 69 0 -3 165 -3 165 24 16 c38 25
46 6 48 -120 2 -63 5 -119 8 -125 4 -5 3 -23 -2 -39 -5 -17 -6 -35 -2 -41 3
-6 35 -12 71 -13 l65 -2 -3 29 c-3 35 -3 48 -1 99 1 22 -1 93 -3 158 -4 101
-7 121 -24 138 -36 36 -154 23 -154 -16 0 -8 -9 -15 -19 -15 -14 0 -18 5 -14
21 4 15 0 22 -17 26 -22 6 -22 9 -17 82 3 42 13 97 22 123 l17 47 31 -36 c138
-158 317 -222 509 -182 157 33 311 162 368 309 7 19 15 37 16 38 1 2 31 -7 66
-21 84 -34 151 -42 224 -27 138 29 261 131 305 253 l13 37 161 0 c178 0 240
-11 340 -60 189 -92 324 -309 325 -519 l0 -44 -39 7 c-59 9 -137 -25 -156 -69
-4 -11 -10 -39 -12 -62 -4 -38 -1 -46 27 -72 17 -15 61 -43 96 -61 74 -37 104
-71 84 -95 -7 -8 -21 -15 -31 -15 -28 0 -69 22 -69 36 0 22 -38 35 -78 29 -66
-11 -67 -12 -38 -49 14 -19 26 -40 26 -46 0 -6 21 -20 47 -32 64 -28 176 -22
227 13 50 34 64 112 28 153 -31 35 -95 76 -119 76 -13 0 -22 4 -19 9 3 4 -9
16 -28 26 -53 29 -36 83 22 70 21 -4 32 -13 34 -28 3 -20 8 -22 52 -18 86 6
89 9 63 61 -12 25 -34 51 -50 58 -23 11 -27 19 -27 53 0 61 -29 188 -56 248
-57 126 -172 247 -287 304 -133 64 -108 62 -629 65 l-478 3 0 79 c0 44 3 80 8
80 4 0 28 -6 53 -14 297 -90 633 97 758 423 16 42 32 98 36 125 4 27 20 77 36
111 46 102 62 179 65 320 3 114 6 136 28 181 44 91 72 293 47 333 -8 12 -18
11 -62 -9 -80 -34 -149 -25 -267 34 -225 113 -460 156 -680 125z m294 -40
c119 -16 236 -54 358 -116 105 -54 115 -57 186 -57 41 -1 90 3 108 7 l32 9 0
-44 c0 -62 -25 -171 -53 -232 -66 -144 -185 -211 -372 -210 -118 1 -164 9
-395 76 -164 46 -181 49 -265 46 -77 -4 -99 -9 -150 -36 -67 -35 -100 -62
-134 -110 l-23 -33 -20 40 c-17 35 -65 71 -95 71 -13 0 2 103 23 166 57 173
199 323 362 384 120 46 284 61 438 39z m-149 -605 c87 -25 191 -52 231 -60
100 -19 274 -18 341 2 29 8 54 14 55 12 15 -23 29 -107 33 -208 6 -158 -10
-239 -73 -369 -39 -80 -60 -110 -128 -176 -165 -164 -357 -218 -568 -159 l-58
17 0 46 c0 92 -73 155 -151 132 -20 -6 -39 -11 -43 -11 -3 0 -6 117 -6 261 0
226 -2 265 -17 289 -25 42 -72 64 -122 57 -39 -5 -41 -4 -35 16 23 72 97 145
179 177 88 34 179 27 362 -26z m743 -129 c-6 -44 -18 -93 -25 -110 l-13 -30
-1 40 c-1 34 -17 118 -35 190 -4 15 5 29 37 54 l42 34 3 -49 c2 -27 -1 -85 -8
-129z m-1376 84 l26 -20 2 -382 c3 -351 4 -382 20 -385 16 -3 17 20 20 293 l3
297 24 19 c31 26 83 25 107 -2 18 -20 19 -47 24 -488 4 -405 7 -466 20 -466
13 0 16 28 20 172 6 196 10 208 80 208 75 0 75 -1 75 -298 0 -247 -1 -266 -23
-328 -93 -269 -397 -394 -658 -270 -117 55 -209 168 -248 300 -23 79 -24 975
-1 1008 31 44 111 37 134 -13 7 -16 11 -99 11 -230 0 -190 1 -205 18 -202 16
3 17 29 22 332 l5 328 24 19 c31 26 64 24 98 -5 l28 -24 2 -309 c2 -169 3
-316 3 -326 0 -11 6 -17 15 -15 13 3 16 52 18 381 l2 379 28 24 c34 29 66 31
101 3z m1006 -1152 c0 -29 -81 -137 -127 -171 -53 -40 -155 -76 -212 -76 -44
0 -123 21 -174 46 -37 17 -39 21 -33 54 3 19 6 63 6 98 l0 62 270 0 c220 0
270 -3 270 -13z"/>
<path d="M1106 1408 c-107 -71 -194 -182 -227 -289 -24 -78 -23 -174 1 -174
11 0 16 18 21 77 9 106 49 190 131 272 35 35 82 75 106 89 40 26 56 57 29 57
-8 0 -35 -14 -61 -32z"/>
<path d="M1459 778 c-1 -86 -7 -242 -9 -253 -4 -12 -4 -18 -13 -130 -4 -49
-10 -105 -13 -123 l-5 -33 83 1 c46 1 104 -1 129 -5 34 -5 54 -3 77 9 41 21
55 49 58 111 2 28 5 89 8 136 6 101 -1 136 -35 161 -25 19 -85 25 -132 13
l-28 -8 4 69 c3 38 7 76 9 84 2 12 -11 16 -65 18 l-68 3 0 -53z m179 -201 c11
-9 12 -34 7 -116 -9 -133 -16 -153 -53 -149 l-27 3 0 115 c0 134 9 173 40 164
11 -4 26 -11 33 -17z"/>
<path d="M894 676 c-3 -8 -12 -12 -19 -10 -38 15 -81 -43 -91 -123 -11 -90
-13 -223 -4 -247 22 -58 154 -92 239 -62 53 19 91 60 92 101 2 53 6 100 8 105
6 14 5 73 -2 77 -4 2 -4 10 0 16 25 41 -2 108 -54 132 -48 23 -162 30 -169 11z
m94 -85 c9 -6 11 -25 7 -72 -4 -35 -8 -70 -11 -78 -3 -8 1 -18 8 -23 11 -6 10
-10 0 -17 -8 -4 -12 -14 -11 -22 2 -8 0 -24 -4 -36 -15 -43 -66 -39 -68 6 -2
33 -2 28 5 86 16 131 19 151 23 158 6 9 35 9 51 -2z"/>
<path d="M2035 666 c2 -12 7 -75 10 -141 4 -65 7 -122 7 -125 0 -3 0 -21 -1
-41 -1 -31 -5 -38 -27 -43 -15 -4 -30 -3 -35 1 -10 11 -20 128 -20 256 l0 108
-67 -3 c-65 -3 -67 -4 -65 -28 6 -102 16 -311 15 -337 -1 -48 36 -83 90 -83
24 0 54 7 67 17 19 13 28 14 42 5 10 -7 46 -12 80 -12 l62 0 -8 138 c-4 75 -9
175 -10 222 l-4 85 -70 1 c-67 1 -70 0 -66 -20z"/>
<path d="M2340 674 c-25 -8 -58 -25 -73 -38 -27 -24 -29 -29 -28 -98 1 -63 4
-94 10 -131 0 -4 14 -15 31 -25 l30 -19 -30 -28 c-34 -32 -38 -56 -14 -80 16
-15 15 -19 -15 -45 -36 -33 -37 -40 -13 -70 19 -23 119 -50 169 -44 16 1 54 5
85 8 128 13 175 58 152 144 -10 34 -76 60 -154 59 -36 0 -80 4 -99 8 l-35 7
24 13 c13 7 30 11 37 8 23 -9 122 29 137 52 10 15 13 39 10 76 -2 30 -1 71 2
92 5 34 9 38 32 35 23 -3 25 0 24 35 0 20 -1 42 -1 48 -1 15 -48 3 -83 -22
-15 -11 -28 -16 -28 -10 0 10 -45 26 -95 34 -16 2 -50 -2 -75 -9z"/>
</g>
</svg>
